<svg width="36" height="29" viewBox="0 0 36 29" fill="none" xmlns="http://www.w3.org/2000/svg">
<path fill-rule="evenodd" clip-rule="evenodd" d="M25.6418 16.5481C27.8836 18.2338 29.4545 20.5175 29.4545 23.5625V29H36V23.5625C36 19.6113 30.1582 17.2731 25.6418 16.5481Z" fill="#2457C5"/>
<path d="M13.0909 14.5C16.7059 14.5 19.6364 11.2541 19.6364 7.25C19.6364 3.24594 16.7059 0 13.0909 0C9.47596 0 6.54546 3.24594 6.54546 7.25C6.54546 11.2541 9.47596 14.5 13.0909 14.5Z" fill="#2457C5"/>
<path fill-rule="evenodd" clip-rule="evenodd" d="M22.9091 14.5C26.5255 14.5 29.4545 11.2556 29.4545 7.25C29.4545 3.24437 26.5255 0 22.9091 0C22.14 0 21.42 0.18125 20.7327 0.435C22.0909 2.30187 22.9091 4.67625 22.9091 7.25C22.9091 9.82375 22.0909 12.1981 20.7327 14.065C21.42 14.3188 22.14 14.5 22.9091 14.5Z" fill="#2457C5"/>
<path fill-rule="evenodd" clip-rule="evenodd" d="M13.0909 16.3125C8.72182 16.3125 0 18.7412 0 23.5625V29H26.1818V23.5625C26.1818 18.7412 17.46 16.3125 13.0909 16.3125Z" fill="#2457C5"/>
</svg>
