<svg width="22" height="21" viewBox="0 0 22 21" fill="none" xmlns="http://www.w3.org/2000/svg">
<path d="M19.5556 2.1H18.3333V0H15.8889V2.1H6.11111V0H3.66667V2.1H2.44444C1.08778 2.1 0.0122222 3.045 0.0122222 4.2L0 18.9C0 20.055 1.08778 21 2.44444 21H19.5556C20.9 21 22 20.055 22 18.9V4.2C22 3.045 20.9 2.1 19.5556 2.1ZM19.5556 18.9H2.44444V8.4H19.5556V18.9ZM7.33333 12.6H4.88889V10.5H7.33333V12.6ZM12.2222 12.6H9.77778V10.5H12.2222V12.6ZM17.1111 12.6H14.6667V10.5H17.1111V12.6ZM7.33333 16.8H4.88889V14.7H7.33333V16.8ZM12.2222 16.8H9.77778V14.7H12.2222V16.8ZM17.1111 16.8H14.6667V14.7H17.1111V16.8Z" fill="#2457C5"/>
</svg>
