<svg width="36" height="29" viewBox="0 0 36 29" fill="none" xmlns="http://www.w3.org/2000/svg">
<path d="M1.88549 18.4545C1.3663 18.4545 0.942746 18.306 0.614834 18.009C0.286923 17.7128 0.163956 17.378 0.245934 17.0045C0.765127 14.8295 2.2134 13.2091 4.59076 12.1431C6.96812 11.078 9.56409 10.5455 12.3787 10.5455C15.1932 10.5455 17.7892 11.078 20.1666 12.1431C22.5439 13.2091 23.9922 14.8295 24.5114 17.0045C24.5934 17.378 24.4704 17.7128 24.1425 18.009C23.8146 18.306 23.391 18.4545 22.8718 18.4545H1.88549ZM27.9545 29V18.4545C27.9545 15.928 26.9915 13.7807 25.0656 12.0126C23.1385 10.2436 20.4262 9.00758 16.9284 8.30455L16.7235 6.75568C16.6688 6.36023 16.7989 6.01442 17.1137 5.71827C17.4274 5.42124 17.8302 5.27273 18.3221 5.27273H24.6753V1.31818C24.6753 0.944697 24.8322 0.631409 25.1459 0.378318C25.4607 0.126106 25.8504 0 26.3149 0C26.7794 0 27.1691 0.126106 27.4839 0.378318C27.7976 0.631409 27.9545 0.944697 27.9545 1.31818V5.27273H34.3487C34.8406 5.27273 35.2505 5.41553 35.5784 5.70114C35.9063 5.98674 36.0429 6.32727 35.9883 6.72273L33.447 27.0886C33.365 27.6159 33.0715 28.0663 32.5665 28.4398C32.0605 28.8133 31.4522 29 30.7417 29H27.9545ZM1.63956 23.7273C1.17502 23.7273 0.785895 23.6007 0.472193 23.3476C0.157397 23.0954 0 22.7826 0 22.4091C0 22.0356 0.157397 21.7228 0.472193 21.4705C0.785895 21.2175 1.17502 21.0909 1.63956 21.0909H22.9538C23.4183 21.0909 23.808 21.2175 24.1228 21.4705C24.4365 21.7228 24.5934 22.0356 24.5934 22.4091C24.5934 22.7826 24.4365 23.0954 24.1228 23.3476C23.808 23.6007 23.4183 23.7273 22.9538 23.7273H1.63956ZM1.63956 29C1.17502 29 0.785895 28.8735 0.472193 28.6204C0.157397 28.3682 0 28.0553 0 27.6818C0 27.3083 0.157397 26.9955 0.472193 26.7433C0.785895 26.4902 1.17502 26.3636 1.63956 26.3636H22.9538C23.4183 26.3636 23.808 26.4902 24.1228 26.7433C24.4365 26.9955 24.5934 27.3083 24.5934 27.6818C24.5934 28.0553 24.4365 28.3682 24.1228 28.6204C23.808 28.8735 23.4183 29 22.9538 29H1.63956Z" fill="#2457C5"/>
</svg>
