<svg width="24" height="24" viewBox="0 0 24 24" fill="none" xmlns="http://www.w3.org/2000/svg">
<rect width="24" height="24" fill="#F5F5F5"/>
<g id="iPhone 16 - 1" clip-path="url(#clip0_15_2)">
<rect width="393" height="852" transform="translate(-319 -349)" fill="white"/>
<rect id="Rectangle 13" x="-287" y="-51" width="325" height="110" rx="5" fill="#F5F5F5"/>
<g id="Heart plus">
<path id="Vector" d="M18 17V14H15V12H18V9H20V12H23V14H20V17H18ZM11 21L7.825 18.15C6.625 17.0667 5.596 16.1 4.738 15.25C3.87933 14.4 3.171 13.6 2.613 12.85C2.05433 12.1 1.646 11.375 1.388 10.675C1.12933 9.975 1 9.24167 1 8.475C1 6.90833 1.525 5.604 2.575 4.562C3.625 3.52067 4.93333 3 6.5 3C7.36667 3 8.19167 3.179 8.975 3.537C9.75833 3.89567 10.4333 4.40833 11 5.075C11.5667 4.40833 12.2417 3.89567 13.025 3.537C13.8083 3.179 14.6333 3 15.5 3C16.9167 3 18.104 3.429 19.062 4.287C20.0207 5.14567 20.6167 6.15 20.85 7.3C20.55 7.18333 20.25 7.09567 19.95 7.037C19.65 6.979 19.3583 6.95 19.075 6.95C17.3917 6.95 15.9583 7.53733 14.775 8.712C13.5917 9.88733 13 11.3167 13 13C13 13.8667 13.175 14.6873 13.525 15.462C13.875 16.2373 14.3667 16.9 15 17.45C14.6833 17.7333 14.2707 18.096 13.762 18.538C13.254 18.9793 12.8167 19.3667 12.45 19.7L11 21Z" fill="#B7B7B7"/>
</g>
</g>
<defs>
<clipPath id="clip0_15_2">
<rect width="393" height="852" fill="white" transform="translate(-319 -349)"/>
</clipPath>
</defs>
</svg>
