<svg width="17" height="18" viewBox="0 0 17 18" fill="none" xmlns="http://www.w3.org/2000/svg">
<path d="M2.125 18C1.54062 18 1.04054 17.7987 0.62475 17.3962C0.20825 16.993 0 16.5086 0 15.9429V6.68571C0 6.36 0.0754373 6.05143 0.226312 5.76C0.376479 5.46857 0.584375 5.22857 0.85 5.04L7.225 0.411429C7.41979 0.274286 7.62344 0.171428 7.83594 0.102857C8.04844 0.0342856 8.26979 0 8.5 0C8.73021 0 8.95156 0.0342856 9.16406 0.102857C9.37656 0.171428 9.58021 0.274286 9.775 0.411429L16.15 5.04C16.4156 5.22857 16.6239 5.46857 16.7747 5.76C16.9249 6.05143 17 6.36 17 6.68571V15.9429C17 16.5086 16.7921 16.993 16.3763 17.3962C15.9598 17.7987 15.4594 18 14.875 18H10.625V10.8H6.375V18H2.125Z" fill="#2457C5"/>
</svg>
