<svg width="32" height="17" viewBox="0 0 32 17" fill="none" xmlns="http://www.w3.org/2000/svg">
<path d="M16.9455 5.66667C15.7527 2.36583 12.5236 0 8.72727 0C3.91273 0 0 3.81083 0 8.5C0 13.1892 3.91273 17 8.72727 17C12.5236 17 15.7527 14.6342 16.9455 11.3333H23.2727V17H29.0909V11.3333H32V5.66667H16.9455ZM8.72727 11.3333C7.12727 11.3333 5.81818 10.0583 5.81818 8.5C5.81818 6.94167 7.12727 5.66667 8.72727 5.66667C10.3273 5.66667 11.6364 6.94167 11.6364 8.5C11.6364 10.0583 10.3273 11.3333 8.72727 11.3333Z" fill="#2457C5"/>
</svg>
