<svg width="26" height="20" viewBox="0 0 26 20" fill="none" xmlns="http://www.w3.org/2000/svg">
<path d="M15.3636 11.25C16.3485 11.25 17.1856 10.8854 17.875 10.1562C18.5644 9.42708 18.9091 8.54167 18.9091 7.5C18.9091 6.45833 18.5644 5.57292 17.875 4.84375C17.1856 4.11458 16.3485 3.75 15.3636 3.75C14.3788 3.75 13.5417 4.11458 12.8523 4.84375C12.1629 5.57292 11.8182 6.45833 11.8182 7.5C11.8182 8.54167 12.1629 9.42708 12.8523 10.1562C13.5417 10.8854 14.3788 11.25 15.3636 11.25ZM7.09091 15C6.44091 15 5.88467 14.755 5.42218 14.265C4.95891 13.7758 4.72727 13.1875 4.72727 12.5V2.5C4.72727 1.8125 4.95891 1.22417 5.42218 0.735C5.88467 0.245 6.44091 0 7.09091 0H23.6364C24.2864 0 24.843 0.245 25.3063 0.735C25.7688 1.22417 26 1.8125 26 2.5V12.5C26 13.1875 25.7688 13.7758 25.3063 14.265C24.843 14.755 24.2864 15 23.6364 15H7.09091ZM2.36364 20C1.71364 20 1.15739 19.7554 0.694909 19.2663C0.231636 18.7763 0 18.1875 0 17.5V5C0 4.64583 0.113455 4.34875 0.340364 4.10875C0.566485 3.86958 0.84697 3.75 1.18182 3.75C1.51667 3.75 1.79755 3.86958 2.02445 4.10875C2.25058 4.34875 2.36364 4.64583 2.36364 5V17.5H21.2727C21.6076 17.5 21.8881 17.62 22.1142 17.86C22.3411 18.0992 22.4545 18.3958 22.4545 18.75C22.4545 19.1042 22.3411 19.4008 22.1142 19.64C21.8881 19.88 21.6076 20 21.2727 20H2.36364ZM7.09091 5C7.74091 5 8.29715 4.755 8.75964 4.265C9.22291 3.77583 9.45455 3.1875 9.45455 2.5H7.09091V5ZM23.6364 5V2.5H21.2727C21.2727 3.1875 21.504 3.77583 21.9665 4.265C22.4297 4.755 22.9864 5 23.6364 5ZM7.09091 12.5H9.45455C9.45455 11.8125 9.22291 11.2237 8.75964 10.7337C8.29715 10.2446 7.74091 10 7.09091 10V12.5ZM21.2727 12.5H23.6364V10C22.9864 10 22.4297 10.2446 21.9665 10.7337C21.504 11.2237 21.2727 11.8125 21.2727 12.5Z" fill="#004AAD"/>
</svg>
