<svg width="15" height="20" viewBox="0 0 15 20" fill="none" xmlns="http://www.w3.org/2000/svg">
<path d="M9.125 7.5C9.64583 7.5 10.0885 7.25694 10.4531 6.77083C10.8177 6.28472 11 5.69444 11 5C11 4.30556 10.8177 3.71528 10.4531 3.22917C10.0885 2.74306 9.64583 2.5 9.125 2.5C8.60417 2.5 8.16146 2.74306 7.79688 3.22917C7.43229 3.71528 7.25 4.30556 7.25 5C7.25 5.69444 7.43229 6.28472 7.79688 6.77083C8.16146 7.25694 8.60417 7.5 9.125 7.5ZM4.75 10C4.40625 10 4.11208 9.83667 3.8675 9.51C3.6225 9.18389 3.5 8.79167 3.5 8.33333V1.66667C3.5 1.20833 3.6225 0.816111 3.8675 0.49C4.11208 0.163333 4.40625 0 4.75 0H13.5C13.8438 0 14.1381 0.163333 14.3831 0.49C14.6277 0.816111 14.75 1.20833 14.75 1.66667V8.33333C14.75 8.79167 14.6277 9.18389 14.3831 9.51C14.1381 9.83667 13.8438 10 13.5 10H4.75ZM2.25 13.3333C1.90625 13.3333 1.61208 13.1703 1.3675 12.8442C1.1225 12.5175 1 12.125 1 11.6667V3.33333C1 3.09722 1.06 2.89917 1.18 2.73917C1.29958 2.57972 1.44792 2.5 1.625 2.5C1.80208 2.5 1.95063 2.57972 2.07063 2.73917C2.19021 2.89917 2.25 3.09722 2.25 3.33333V11.6667H12.25C12.4271 11.6667 12.5754 11.7467 12.695 11.9067C12.815 12.0661 12.875 12.2639 12.875 12.5C12.875 12.7361 12.815 12.9339 12.695 13.0933C12.5754 13.2533 12.4271 13.3333 12.25 13.3333H2.25ZM4.75 3.33333C5.09375 3.33333 5.38792 3.17 5.6325 2.84333C5.8775 2.51722 6 2.125 6 1.66667H4.75V3.33333ZM13.5 3.33333V1.66667H12.25C12.25 2.125 12.3723 2.51722 12.6169 2.84333C12.8619 3.17 13.1562 3.33333 13.5 3.33333ZM4.75 8.33333H6C6 7.875 5.8775 7.4825 5.6325 7.15583C5.38792 6.82972 5.09375 6.66667 4.75 6.66667V8.33333ZM12.25 8.33333H13.5V6.66667C13.1562 6.66667 12.8619 6.82972 12.6169 7.15583C12.3723 7.4825 12.25 7.875 12.25 8.33333Z" fill="#0021F5"/>
</svg>
