<svg width="36" height="29" viewBox="0 0 36 29" fill="none" xmlns="http://www.w3.org/2000/svg">
<g clip-path="url(#clip0_192_5)">
<path d="M6.75 14.5C8.82107 14.5 10.5 13.1475 10.5 11.4791C10.5 9.81079 8.82107 8.45831 6.75 8.45831C4.67893 8.45831 3 9.81079 3 11.4791C3 13.1475 4.67893 14.5 6.75 14.5Z" fill="#2457C5"/>
<path d="M13.5 9.66667C15.5711 9.66667 17.25 8.31419 17.25 6.64583C17.25 4.97747 15.5711 3.625 13.5 3.625C11.4289 3.625 9.75 4.97747 9.75 6.64583C9.75 8.31419 11.4289 9.66667 13.5 9.66667Z" fill="#2457C5"/>
<path d="M22.5 9.66667C24.5711 9.66667 26.25 8.31419 26.25 6.64583C26.25 4.97747 24.5711 3.625 22.5 3.625C20.4289 3.625 18.75 4.97747 18.75 6.64583C18.75 8.31419 20.4289 9.66667 22.5 9.66667Z" fill="#2457C5"/>
<path d="M29.25 14.5C31.3211 14.5 33 13.1475 33 11.4791C33 9.81079 31.3211 8.45831 29.25 8.45831C27.1789 8.45831 25.5 9.81079 25.5 11.4791C25.5 13.1475 27.1789 14.5 29.25 14.5Z" fill="#2457C5"/>
<path d="M26.01 17.9558C24.705 16.7233 23.61 15.6721 22.29 14.4396C21.6 13.7871 20.715 13.1346 19.665 12.8446C19.5 12.7963 19.335 12.76 19.17 12.7358C18.795 12.6875 18.39 12.6875 18 12.6875C17.61 12.6875 17.205 12.6875 16.815 12.7479C16.65 12.7721 16.485 12.8083 16.32 12.8567C15.27 13.1467 14.4 13.7992 13.695 14.4517C12.39 15.6842 11.295 16.7354 9.975 17.9679C8.01 19.5508 5.595 21.3029 6.045 23.7558C6.48 24.9883 7.575 26.2087 9.54 26.5592C10.635 26.7404 14.13 26.0275 17.85 26.0275H18.12C21.84 26.0275 25.335 26.7283 26.43 26.5592C28.395 26.2087 29.49 24.9763 29.925 23.7558C30.39 21.2908 27.975 19.5387 26.01 17.9558Z" fill="#2457C5"/>
</g>
<defs>
<clipPath id="clip0_192_5">
<rect width="36" height="29" fill="white"/>
</clipPath>
</defs>
</svg>
