<svg width="34" height="34" viewBox="0 0 34 34" fill="none" xmlns="http://www.w3.org/2000/svg">
<g clip-path="url(#clip0_59_160)">
<path d="M27.115 18.3317C27.1717 17.9067 27.2 17.4675 27.2 17C27.2 16.5467 27.1717 16.0933 27.1008 15.6683L29.9767 13.43C30.2317 13.2317 30.3025 12.8492 30.1467 12.5658L27.4267 7.86249C27.2567 7.55083 26.9025 7.45166 26.5908 7.55083L23.205 8.91083C22.4967 8.37249 21.7458 7.91916 20.91 7.57916L20.4 3.98083C20.3433 3.64083 20.06 3.39999 19.72 3.39999H14.28C13.94 3.39999 13.6708 3.64083 13.6142 3.98083L13.1042 7.57916C12.2683 7.91916 11.5033 8.38666 10.8092 8.91083L7.42333 7.55083C7.11167 7.43749 6.7575 7.55083 6.5875 7.86249L3.88167 12.5658C3.71167 12.8633 3.76833 13.2317 4.05167 13.43L6.9275 15.6683C6.85667 16.0933 6.8 16.5608 6.8 17C6.8 17.4392 6.82833 17.9067 6.89917 18.3317L4.02333 20.57C3.76833 20.7683 3.6975 21.1508 3.85333 21.4342L6.57333 26.1375C6.74333 26.4492 7.0975 26.5483 7.40917 26.4492L10.795 25.0892C11.5033 25.6275 12.2542 26.0808 13.09 26.4208L13.6 30.0192C13.6708 30.3592 13.94 30.6 14.28 30.6H19.72C20.06 30.6 20.3433 30.3592 20.3858 30.0192L20.8958 26.4208C21.7317 26.0808 22.4967 25.6275 23.1908 25.0892L26.5767 26.4492C26.8883 26.5625 27.2425 26.4492 27.4125 26.1375L30.1325 21.4342C30.3025 21.1225 30.2317 20.7683 29.9625 20.57L27.115 18.3317ZM17 22.1C14.195 22.1 11.9 19.805 11.9 17C11.9 14.195 14.195 11.9 17 11.9C19.805 11.9 22.1 14.195 22.1 17C22.1 19.805 19.805 22.1 17 22.1Z" fill="#0021F5"/>
</g>
<defs>
<clipPath id="clip0_59_160">
<rect width="34" height="34" fill="white"/>
</clipPath>
</defs>
</svg>
