<svg width="36" height="29" viewBox="0 0 36 29" fill="none" xmlns="http://www.w3.org/2000/svg">
<path d="M28.275 19.3333L27 18.3063V15.7083H29.25V19.3333H28.275ZM25.5 17.0979L23.775 15.7083H25.5V17.0979ZM30.75 19.3333V15.7083H33V19.3333H30.75ZM28.65 26.4625L19.8 19.3333H5.25C4.625 19.3333 4.094 19.1569 3.657 18.8041C3.219 18.4521 3 18.0243 3 17.5208C3 17.0174 3.219 16.5896 3.657 16.2376C4.094 15.8848 4.625 15.7083 5.25 15.7083H15.3L3.15 5.92084C2.875 5.69931 2.7375 5.41736 2.7375 5.075C2.7375 4.73264 2.875 4.4507 3.15 4.22917C3.425 4.00764 3.775 3.89688 4.2 3.89688C4.625 3.89688 4.975 4.00764 5.25 4.22917L30.75 24.7708C31.025 24.9924 31.1625 25.2743 31.1625 25.6167C31.1625 25.959 31.025 26.241 30.75 26.4625C30.475 26.684 30.125 26.7948 29.7 26.7948C29.275 26.7948 28.925 26.684 28.65 26.4625ZM28.125 14.5C27.8 14.5 27.531 14.4142 27.318 14.2426C27.106 14.0718 27 13.8556 27 13.5938V12.9292C27 12.1438 26.7125 11.5444 26.1375 11.1312C25.5625 10.7187 24.875 10.5125 24.075 10.5125H21.75C20.35 10.5125 19.1625 10.1198 18.1875 9.33438C17.2125 8.54896 16.725 7.59236 16.725 6.46459C16.725 5.51806 17.0815 4.6823 17.7945 3.9573C18.5065 3.2323 19.4 2.75903 20.475 2.5375C20.8 2.45695 21.094 2.51213 21.357 2.70305C21.619 2.89477 21.75 3.15174 21.75 3.47396C21.75 3.65521 21.6625 3.82639 21.4875 3.9875C21.3125 4.14861 21.0875 4.26945 20.8125 4.35C20.2875 4.51111 19.85 4.77775 19.5 5.14992C19.15 5.52289 18.975 5.96111 18.975 6.46459C18.975 7.10903 19.25 7.64271 19.8 8.06563C20.35 8.48855 21 8.7 21.75 8.7H24.075C25.475 8.7 26.6875 9.0625 27.7125 9.7875C28.7375 10.5125 29.25 11.4188 29.25 12.5063V13.5938C29.25 13.8556 29.144 14.0718 28.932 14.2426C28.719 14.4142 28.45 14.5 28.125 14.5ZM31.875 14.5C31.55 14.5 31.281 14.4142 31.068 14.2426C30.856 14.0718 30.75 13.8556 30.75 13.5938V11.7813C30.75 10.5729 30.275 9.51563 29.325 8.60938C28.375 7.70313 27.175 7.14931 25.725 6.94792C25.45 6.90764 25.219 6.80171 25.032 6.63013C24.844 6.45935 24.75 6.24306 24.75 5.98125C24.75 5.73959 24.825 5.52813 24.975 5.34688C25.125 5.16563 25.375 5.02466 25.725 4.92396C26.125 4.80313 26.4685 4.62188 26.7555 4.38021C27.0435 4.13855 27.25 3.8566 27.375 3.53438C27.475 3.31285 27.619 3.14167 27.807 3.02084C27.994 2.9 28.2 2.83959 28.425 2.83959C28.825 2.83959 29.144 2.95035 29.382 3.17188C29.619 3.39341 29.6875 3.64514 29.5875 3.92709C29.4625 4.26945 29.2875 4.59167 29.0625 4.89375C28.8375 5.19584 28.575 5.47778 28.275 5.73959C29.675 6.2632 30.8125 7.06875 31.6875 8.15625C32.5625 9.24375 33 10.4521 33 11.7813V13.5938C33 13.8556 32.894 14.0718 32.682 14.2426C32.469 14.4142 32.2 14.5 31.875 14.5Z" fill="#2457C5"/>
</svg>
