<svg width="7" height="27" viewBox="0 0 7 27" fill="none" xmlns="http://www.w3.org/2000/svg">
<path d="M3.5 6.75C5.425 6.75 7 5.23125 7 3.375C7 1.51875 5.425 0 3.5 0C1.575 0 0 1.51875 0 3.375C0 5.23125 1.575 6.75 3.5 6.75ZM3.5 10.125C1.575 10.125 0 11.6438 0 13.5C0 15.3562 1.575 16.875 3.5 16.875C5.425 16.875 7 15.3562 7 13.5C7 11.6438 5.425 10.125 3.5 10.125ZM3.5 20.25C1.575 20.25 0 21.7687 0 23.625C0 25.4813 1.575 27 3.5 27C5.425 27 7 25.4813 7 23.625C7 21.7687 5.425 20.25 3.5 20.25Z" fill="#2457C5"/>
</svg>
